# xmcd
#
# Track frame offsets: 
#        150
#        18798
#        32140
#        42548
#        56823
#        80403
#        96138
#        112015
#        131013
#        146693
#        166223
#        174800
#        219525
#
# Disc length: 3270 seconds
#
# Revision: 1
# Processed by: cddbd v1.5.2PL0 Copyright (c) Steve Scherf et al.
# Submitted via: ExactAudioCopyFreeDBPlugin 1.0
#
DISCID=b00cc40d
DTITLE=Echt - Dit is Echt
DYEAR=1992
DGENRE=Blues
TTITLE0=Donker aangezicht
TTITLE1=Loop niet weg
TTITLE2=Oke de balle
TTITLE3=Nu  Blues
TTITLE4=Onassis
TTITLE5=Als ik een ding mag zeggen
TTITLE6=Dansen
TTITLE7=Zonder basis
TTITLE8=Stem van de Heer
TTITLE9=Johannes 3:16
TTITLE10=Proclamation Boogie
TTITLE11=Suicide Blues
TTITLE12=Rust
EXTD=
EXTT0=
EXTT1=
EXTT2=
EXTT3=
EXTT4=
EXTT5=
EXTT6=
EXTT7=
EXTT8=
EXTT9=
EXTT10=
EXTT11=
EXTT12=
PLAYORDER=
